{"title":"Convoy(1978)-[DvDrip Xvid][Eng AC3 6ch] - Omifast Greek","uid":5053273,"size":1506993768,"categoryP":"video","categoryS":"movies","magnet":"?xt=urn:btih:13a88f2326d975b2b339148cb654aa94b99cfa8b&amp;dn=Convoy%281978%29-%5BDvDrip+Xvid%5D%5BEng+AC3+6ch%5D+-+Omifast+Greek&amp;tr=udp%3A%2F%2Ftracker.openbittorrent.com%3A80&amp;tr=udp%3A%2F%2Fopen.demonii.com%3A1337&amp;tr=udp%3A%2F%2Ftracker.coppersurfer.tk%3A6969&amp;tr=udp%3A%2F%2Fexodus.desync.com%3A6969","seeders":1,"leechers":0,"uploader":"OmifastGR","files":-1,"time":1250274541,"description":"SEPARATE GREEK SUBTITLES\n\nMovie Trailer, Sample, Snapsots, English and Greek Info.txt Included\n\n------------------------------------------------------------------------------\n\nConvoy (1978) - Original DvDrip &lt;a href=&quot;\nhttp://www.imdb.com/title/tt0077369/&quot; rel=&quot;nofollow&quot; target=&quot;_NEW&quot;&gt;\nhttp://www.imdb.com/title/tt0077369/&lt;/a&gt;\n\nA mile-long convoy of protesting truckers speeds along the Arizona highway toward the Mexican border. The tense action builds to an incredible climax in one of the most destructive auto crash scenes ever filmed.\n\nStarring: Kris Kristofferson, Ali MacGraw, Ernest Borgnine,\n\nDirector: Sam Peckinpah\n\n---------------------------------------------------------------------------------\n\nGeneral\n\nFormat                           : AVI\nFormat/Info                      : Audio Video Interleave\nFile size                        : 1.37 GiB\nDuration                         : 1h 46mn\nOverall bit rate                 : 1 843 Kbps\nWriting application              : VirtualDubMod 1.5.4.1 (build 2178/release)\nWriting library                  : VirtualDubMod build 2178/release\n\nVideo\nID                               : 0\nFormat                           : MPEG-4 Visual\nFormat profile                   : AdvancedSimple@L5\nFormat settings, BVOP            : Yes\nFormat settings, QPel            : No\nFormat settings, GMC             : No warppoints\nFormat settings, Matrix          : Custom\nCodec ID                         : XVID\nCodec ID/Hint                    : XviD\nDuration                         : 1h 46mn\nBit rate                         : 1 389 Kbps\nWidth                            : 784 pixels\nHeight                           : 336 pixels\nDisplay aspect ratio             : 2.35:1\nFrame rate                       : 25.000 fps\nResolution                       : 24 bits\nColorimetry                      : 4:2:0\nScan type                        : Progressive\nBits/(Pixel*Frame)               : 0.211\nStream size                      : 1.03 GiB (75%)\nWriting library                  : XviD 1.2.1 (UTC 2008-12-04)\n\nAudio\nID                               : 1\nFormat                           : AC-3\nFormat/Info                      : Audio Coding 3\nCodec ID                         : 2000\nDuration                         : 1h 46mn\nBit rate mode                    : Constant\nBit rate                         : 448 Kbps\nChannel(s)                       : 6 channels\nChannel positions                : Front: L C R, Surround: L R, LFE\nSampling rate                    : 48.0 KHz\nStream size                      : 340 MiB (24%)\nAlignment                        : Split accross interleaves\nInterleave, duration             : 96 ms (2.40 video frames)\nInterleave, preload duration     : 96 ms\nLanguage                         : English\n\n\n!","torrent":{"xt":"urn:btih:13a88f2326d975b2b339148cb654aa94b99cfa8b","amp;dn":"Convoy%281978%29-%5BDvDrip+Xvid%5D%5BEng+AC3+6ch%5D+-+Omifast+Greek","amp;tr":["udp%3A%2F%2Ftracker.openbittorrent.com%3A80","udp%3A%2F%2Fopen.demonii.com%3A1337","udp%3A%2F%2Ftracker.coppersurfer.tk%3A6969","udp%3A%2F%2Fexodus.desync.com%3A6969"],"infoHash":"13a88f2326d975b2b339148cb654aa94b99cfa8b","infoHashBuffer":{"type":"Buffer","data":[19,168,143,35,38,217,117,178,179,57,20,140,182,84,170,148,185,156,250,139]},"announce":[],"urlList":[]}}